{"title":"Dinosaur Island 2014 DVDRIP XVID AC3 ACAB","uid":11145633,"size":1296492268,"categoryP":"video","categoryS":"movies","magnet":"?xt=urn:btih:47e27ef9c42ff6941d09a4089cad9d04014ced83&amp;dn=Dinosaur+Island+2014+DVDRIP+XVID+AC3+ACAB&amp;tr=udp%3A%2F%2Ftracker.openbittorrent.com%3A80&amp;tr=udp%3A%2F%2Fopen.demonii.com%3A1337&amp;tr=udp%3A%2F%2Ftracker.coppersurfer.tk%3A6969&amp;tr=udp%3A%2F%2Fexodus.desync.com%3A6969","seeders":10,"leechers":4,"uploader":"xxxlavalxxx","files":-1,"time":1412256639,"description":"[IMG]http://i.imgur.com/zXLDHqp.jpg[/IMG]\n\n &lt;a href=&quot;\nhttp://www.imdb.com/title/tt3261302/&quot; rel=&quot;nofollow&quot; target=&quot;_NEW&quot;&gt;\nhttp://www.imdb.com/title/tt3261302/&lt;/a&gt;\n\n\nThe adventure begins when Lucas (Darius Williams) a 13 year old boy embarks on the vacation of a lifetime. When disaster strikes, Lucas finds himself stranded in a strange land littered ... See full summary Â»\n\nDirector: Matt Drummond\nWriter: Matt Drummond\nStars: Darius Williams, Kate Rasmussen, Joe Bistaveous \nGenres: Family\nCountry: Australia\nLanguage: English\n\n\nFormat                                   : AVI\nFormat/Info                              : Audio Video Interleave\nFile size                                : 1.19 GiB\nDuration                                 : 1h 19mn\nOverall bit rate                         : 2 152 Kbps\nWriting library                          : VirtualDub build 30091/release\n\nVideo\nID                                       : 0\nFormat                                   : MPEG-4 Visual\nFormat profile                           : Advanced Simple@L5\nFormat settings, BVOP                    : 2\nFormat settings, QPel                    : No\nFormat settings, GMC                     : No warppoints\nFormat settings, Matrix                  : Default (H.263)\nMuxing mode                              : Packed bitstream\nCodec ID                                 : XVID\nCodec ID/Hint                            : XviD\nDuration                                 : 1h 19mn\nBit rate                                 : 1 694 Kbps\nWidth                                    : 720 pixels\nHeight                                   : 400 pixels\nDisplay aspect ratio                     : 16:9\nFrame rate                               : 25.000 fps\nColor space                              : YUV\nChroma subsampling                       : 4:2:0\nBit depth                                : 8 bits\nScan type                                : Progressive\nCompression mode                         : Lossy\nBits/(Pixel*Frame)                       : 0.235\nStream size                              : 961 MiB (79%)\nWriting library                          : XviD 1.2.1 (UTC 2008-12-04)\n\nAudio\nID                                       : 1\nFormat                                   : AC-3\nFormat/Info                              : Audio Coding 3\nMode extension                           : CM (complete main)\nFormat settings, Endianness              : Big\nCodec ID                                 : 2000\nDuration                                 : 1h 19mn\nBit rate mode                            : Constant\nBit rate                                 : 448 Kbps\nChannel(s)                               : 6 channels\nChannel positions                        : Front: L C R, Side: L R, LFE\nSampling rate                            : 48.0 KHz\nBit depth                                : 16 bits\nCompression mode                         : Lossy\nStream size                              : 254 MiB (21%)\n\n\nscreens\n &lt;a href=&quot;\nhttp://i.imgur.com/MhTXlr6.png&quot; rel=&quot;nofollow&quot; target=&quot;_NEW&quot;&gt;\nhttp://i.imgur.com/MhTXlr6.png&lt;/a&gt; &lt;a href=&quot;\nhttp://i.imgur.com/SvxFTKS.png&quot; rel=&quot;nofollow&quot; target=&quot;_NEW&quot;&gt;\nhttp://i.imgur.com/SvxFTKS.png&lt;/a&gt; &lt;a href=&quot;\nhttp://i.imgur.com/YvoF5Sx.png&quot; rel=&quot;nofollow&quot; target=&quot;_NEW&quot;&gt;\nhttp://i.imgur.com/YvoF5Sx.png&lt;/a&gt; &lt;a href=&quot;\nhttp://i.imgur.com/34Yduhl.png&quot; rel=&quot;nofollow&quot; target=&quot;_NEW&quot;&gt;\nhttp://i.imgur.com/34Yduhl.png&lt;/a&gt;","torrent":{"xt":"urn:btih:47e27ef9c42ff6941d09a4089cad9d04014ced83","amp;dn":"Dinosaur+Island+2014+DVDRIP+XVID+AC3+ACAB","amp;tr":["udp%3A%2F%2Ftracker.openbittorrent.com%3A80","udp%3A%2F%2Fopen.demonii.com%3A1337","udp%3A%2F%2Ftracker.coppersurfer.tk%3A6969","udp%3A%2F%2Fexodus.desync.com%3A6969"],"infoHash":"47e27ef9c42ff6941d09a4089cad9d04014ced83","infoHashBuffer":{"type":"Buffer","data":[71,226,126,249,196,47,246,148,29,9,164,8,156,173,157,4,1,76,237,131]},"announce":[],"urlList":[]}}